<?xml version="1.0" encoding="utf-8"?>
<!-- Generator: Adobe Illustrator 12.0.1, SVG Export Plug-In  -->
<!DOCTYPE svg PUBLIC "-//W3C//DTD SVG 1.1//EN" "http://www.w3.org/Graphics/SVG/1.1/DTD/svg11.dtd" [
	<!ENTITY ns_flows "http://ns.adobe.com/Flows/1.0/">
	<!ENTITY ns_svg "http://www.w3.org/2000/svg">
	<!ENTITY ns_xlink "http://www.w3.org/1999/xlink">
]>
<svg  version="1.1" xmlns="&ns_svg;" xmlns:xlink="&ns_xlink;" xmlns:a="http://ns.adobe.com/AdobeSVGViewerExtensions/3.0/"
	 width="51" height="51" viewBox="-0.4 -0.9 51 51" enable-background="new -0.4 -0.9 51 51" xml:space="preserve">
<defs>
</defs>
<path fill="#A3001C" d="M27.4,49.8c-0.8,0.1-1.6,0.1-2.4,0.1c-3.2,0-6.2-0.6-9-1.7c0.1-3.9,1.9-9.2,5.4-15.9
	c3.7-7.2,6.2-10.8,7.3-10.9c0.6,0,0.9,0.5,1,1.5c0,0.9-0.7,5.9-2.2,15c-0.6,3.6-0.9,6.6-0.8,9C26.7,48.1,26.9,49,27.4,49.8
	L27.4,49.8z M0,25C0,16.4,4.3,8.9,10.8,4.4c0,0.3-0.1,0.6,0,0.9c0.1,3.1,2.7,5.6,5.9,5.5s5.6-2.7,5.5-5.9c-0.1-1.8-1-3.4-2.3-4.4
	C21.4,0.2,23.2,0,25,0c13.8,0,25,11.2,25,25c0,9.6-5.4,17.9-13.3,22.1c-0.3-0.9-0.5-1.9-0.5-3c-0.1-2.8,0.4-6.9,1.5-12.5
	c1.1-5.6,1.7-9.8,1.6-12.5c-0.1-3.9-2.1-5.7-5.9-5.6c-5,0.2-9.8,5.3-14.3,15.3c1.2-6.1,1.7-9.8,1.7-11c-0.1-2.3-1.5-3.4-4.3-3.3
	c-1.8,0.1-3.8,0.6-6.2,1.5c0.4,0.9,0.6,1.8,0.6,2.8C11,22.3,10,29.6,7.8,40.4l-0.5,2.3C2.8,38.1,0,31.9,0,25L0,25z"/>
</svg>
