<?xml version="1.0" encoding="utf-8"?>
<!-- Generator: Adobe Illustrator 12.0.1, SVG Export Plug-In  -->
<!DOCTYPE svg PUBLIC "-//W3C//DTD SVG 1.1//EN" "http://www.w3.org/Graphics/SVG/1.1/DTD/svg11.dtd" [
	<!ENTITY ns_flows "http://ns.adobe.com/Flows/1.0/">
	<!ENTITY ns_svg "http://www.w3.org/2000/svg">
	<!ENTITY ns_xlink "http://www.w3.org/1999/xlink">
]>
<svg  version="1.1" xmlns="&ns_svg;" xmlns:xlink="&ns_xlink;" xmlns:a="http://ns.adobe.com/AdobeSVGViewerExtensions/3.0/"
	 width="186" height="101" viewBox="-0.7 -0.8 186 101" enable-background="new -0.7 -0.8 186 101" xml:space="preserve">
<defs>
</defs>
<rect fill="#FFFFFF" width="185.3" height="100"/>
<path fill="#616365" d="M5.5,58.9c0-1.2-1-2.2-2.2-2.2c-1.2,0-2.1,1-2.1,2.2c0,1.2,0.9,2.2,2.1,2.2C4.5,61.1,5.5,60.1,5.5,58.9
	L5.5,58.9z M4.8,80.5V63.6l-3.1,0.5v16.4H4.8L4.8,80.5z"/>
<path fill="#616365" d="M24.1,80.5V68c0-0.8-0.1-1.5-0.4-2.1c-0.6-1.4-2.1-2.3-3.9-2.3c-1,0-2.1,0.3-3.1,0.8
	c-0.7,0.4-1.2,0.8-2.1,1.6c0-1-0.2-1.7-0.6-2.5l-2.9,0.8c0.5,1.2,0.6,1.9,0.6,3.9v12.3h3V68.3c1.1-1.2,2.9-2.1,4.1-2.1
	c0.8,0,1.3,0.2,1.7,0.7c0.4,0.5,0.5,1.1,0.5,2.5v11.1H24.1L24.1,80.5z"/>
<path fill="#616365" d="M43.2,80.5V68c0-0.8-0.1-1.5-0.4-2.1c-0.6-1.4-2.1-2.3-3.9-2.3c-1,0-2.1,0.3-3.1,0.8
	c-0.7,0.4-1.2,0.8-2.1,1.6c0-1-0.2-1.7-0.6-2.5l-2.9,0.8c0.5,1.2,0.6,1.9,0.6,3.9v12.3h3V68.3c1.1-1.2,2.9-2.1,4.1-2.1
	c0.8,0,1.3,0.2,1.7,0.7c0.4,0.5,0.5,1.1,0.5,2.5v11.1H43.2L43.2,80.5z"/>
<path fill="#616365" d="M62.8,72.4c0-5-2.4-8.8-7.2-8.8c-4.3,0-7.1,3.4-7.1,8.7c0,5.4,2.7,8.7,7.1,8.7C60,80.9,62.8,77.6,62.8,72.4
	L62.8,72.4z M59.5,72.5c0,4.3-1.4,6.1-3.7,6.1c-2.6,0-3.8-1.7-3.8-6.7c0-4.1,1.1-6,3.7-6C58,65.9,59.5,67.4,59.5,72.5L59.5,72.5z"/>
<path fill="#616365" d="M80.9,64h-3.2l-3.1,9.5c-0.5,1.3-0.8,2.6-1,3.6h-0.1c-0.3-1.1-0.6-2.4-1-3.6l-3.3-10l-3.1,0.5l5.9,16.5h2.8
	L80.9,64L80.9,64z"/>
<path fill="#616365" d="M97.7,79.1c-1.3-0.8-1.3-1.7-1.3-4c0-2.4,0.1-4.9,0.1-6.1c0-1.6-0.1-2.2-0.3-2.9c-0.6-1.7-2.4-2.6-4.8-2.6
	c-3.2,0-5.3,1.2-6.9,2.2l1.4,2.2c1.3-1,3.3-1.9,5.1-1.9c2.3,0,2.6,1.3,2.6,3.3v1.1c-0.4,0-0.8,0-1.2,0c-5.3,0-8.4,2-8.4,5.9
	c0,3.2,2,4.8,5.3,4.8c2.9,0,4.2-1.6,4.7-2.2c0.4,1.2,1.2,2,2.2,2.4L97.7,79.1L97.7,79.1z M93.5,72.4l-0.1,4.2
	c-0.8,1.3-2.1,2.2-3.5,2.2c-1.7,0-2.6-1.1-2.6-2.9c0-1.1,0.2-1.7,0.9-2.4c0.7-0.8,2-1.2,4.3-1.2C92.8,72.3,93,72.3,93.5,72.4
	L93.5,72.4z"/>
<path fill="#616365" d="M110.1,64h-4c0-1.7,0.2-3.8,0.3-4.9l-3.1,0.7c-0.2,1.2-0.2,2.9-0.2,4.2h-2v2.1h2v10.6c0,2.4,0.5,2.7,1.2,3.4
	c0.5,0.5,1.7,0.8,2.8,0.8c1.1,0,2.1-0.2,3-0.7l-0.4-1.8c-0.5,0.2-1,0.3-1.5,0.3c-1.6,0-2.1-0.6-2.1-2.7v-9.9h3.3L110.1,64L110.1,64z
	"/>
<path fill="#616365" d="M119.4,58.9c0-1.2-1-2.2-2.2-2.2s-2.1,1-2.1,2.2c0,1.2,0.9,2.2,2.1,2.2C118.5,61.1,119.4,60.1,119.4,58.9
	L119.4,58.9z M118.8,80.5V63.6l-3.1,0.5v16.4H118.8L118.8,80.5z"/>
<path fill="#616365" d="M138.9,72.4c0-5-2.4-8.8-7.2-8.8c-4.3,0-7.1,3.4-7.1,8.7c0,5.4,2.7,8.7,7.1,8.7
	C136.1,80.9,138.9,77.6,138.9,72.4L138.9,72.4z M135.5,72.5c0,4.3-1.4,6.1-3.7,6.1c-2.6,0-3.8-1.7-3.8-6.7c0-4.1,1.1-6,3.7-6
	C134,65.9,135.5,67.4,135.5,72.5L135.5,72.5z"/>
<path fill="#616365" d="M156.9,80.5V68c0-0.8-0.1-1.5-0.4-2.1c-0.6-1.4-2.1-2.3-3.9-2.3c-1,0-2.1,0.3-3.1,0.8
	c-0.7,0.4-1.2,0.8-2.1,1.6c0-1-0.2-1.7-0.6-2.5l-2.9,0.8c0.5,1.2,0.6,1.9,0.6,3.9v12.3h3V68.3c1.1-1.2,2.9-2.1,4.1-2.1
	c0.8,0,1.4,0.2,1.7,0.7c0.4,0.5,0.5,1.1,0.5,2.5v11.1H156.9L156.9,80.5z"/>
<path fill="#616365" d="M174.8,75.4c0-2.2-1.2-3.9-4.3-4.6l-2.1-0.5c-1.7-0.4-2.3-1.1-2.3-2.2c0-1.5,1.1-2.5,2.9-2.5
	c1.3,0,2.5,0.4,4,1.2l1-2.1c-1.3-0.8-3.2-1.3-5.2-1.3c-3.6,0-6,2.1-6,5.1c0,2.4,1.4,4.1,4,4.6l2,0.4c1.9,0.4,2.8,1.2,2.8,2.6
	c0,1.6-1.2,2.7-3.1,2.7c-1.8,0-3.7-0.8-5.3-1.6l-1.1,2.2c1.9,1.1,4.1,1.7,6.1,1.7C172.1,80.9,174.8,78.7,174.8,75.4L174.8,75.4z"/>
<path fill="#A3001C" d="M159.1,54.9c-0.8,0.1-1.6,0.1-2.4,0.1c-3.2,0-6.2-0.6-9-1.7c0.1-3.9,1.9-9.2,5.4-15.9
	c3.7-7.2,6.2-10.8,7.3-10.9c0.6,0,0.9,0.5,1,1.5c0,0.9-0.7,5.9-2.2,15c-0.6,3.6-0.9,6.6-0.8,9C158.4,53.2,158.7,54.1,159.1,54.9
	L159.1,54.9z M131.8,30c0-8.5,4.3-16.1,10.8-20.6c0,0.3-0.1,0.6,0,0.9c0.1,3.1,2.7,5.6,5.9,5.5s5.6-2.7,5.5-5.9
	c-0.1-1.8-1-3.4-2.3-4.4c1.7-0.4,3.4-0.5,5.2-0.5c13.8,0,25,11.2,25,25c0,9.6-5.4,17.9-13.3,22.1c-0.3-0.9-0.5-1.9-0.5-3
	c-0.1-2.8,0.4-6.9,1.5-12.5c1.1-5.6,1.7-9.8,1.6-12.5c-0.1-3.9-2.1-5.7-5.9-5.6c-5,0.2-9.8,5.3-14.3,15.3c1.2-6.1,1.7-9.8,1.7-11
	c-0.1-2.3-1.5-3.4-4.3-3.3c-1.8,0.1-3.8,0.6-6.2,1.5c0.4,0.9,0.6,1.8,0.6,2.8c0.1,3.6-0.9,10.9-3.1,21.7l-0.5,2.3
	C134.6,43.2,131.8,36.9,131.8,30L131.8,30z"/>
<polygon fill="#A3001C" points="177.8,55.9 175.6,55.9 175.6,56.3 176.4,56.3 176.4,59.3 176.9,59.3 176.9,56.3 177.8,56.3 
	177.8,55.9 "/>
<path fill="#A3001C" d="M181.6,59.3l-0.3-3.3h-0.7l-0.6,2.1c-0.1,0.2-0.1,0.4-0.1,0.5h0c0-0.1,0-0.3-0.1-0.5l-0.6-2h-0.7l-0.3,3.3
	h0.5l0.2-2.2c0-0.2,0-0.5,0-0.6h0c0,0.1,0.1,0.3,0.1,0.6l0.6,2.2h0.4l0.7-2.3c0.1-0.2,0.1-0.4,0.1-0.5h0c0,0.1,0,0.3,0,0.5l0.2,2.3
	H181.6L181.6,59.3z"/>
<path fill="#A3001C" d="M3.9,92.4c-0.9,0-1.9-0.2-2.7-0.7l0.5-0.9c0.7,0.4,1.4,0.7,2.2,0.7c1.1,0,1.8-0.6,1.8-1.4
	c0-0.7-0.4-1.1-1.4-1.4l-0.9-0.3c-1.2-0.4-2-1-2-2.1c0-1.4,1.1-2.4,2.7-2.4c0.9,0,1.8,0.3,2.5,0.8l-0.5,0.8c-0.8-0.5-1.3-0.6-2-0.6
	c-0.9,0-1.5,0.5-1.5,1.2c0,0.6,0.3,0.9,1.2,1.2l1,0.3c1.1,0.3,2,1,2,2.3C7.1,90.9,6.1,92.4,3.9,92.4z"/>
<path fill="#A3001C" d="M11.4,92.4c-1.6,0-2.6-1.2-2.6-3.2c0-1.9,1-3.2,2.6-3.2c1.8,0,2.6,1.4,2.6,3.2C14,91.2,13,92.4,11.4,92.4z
	 M11.4,86.9c-1,0-1.4,0.7-1.4,2.2c0,1.8,0.5,2.4,1.4,2.4c0.8,0,1.4-0.6,1.4-2.2C12.8,87.4,12.3,86.9,11.4,86.9z"/>
<path fill="#A3001C" d="M19,84.5c-0.3-0.1-0.5-0.2-0.8-0.2c-0.5,0-0.8,0.3-0.8,1v1h1.6L18.8,87h-1.3v5.2h-1.1V87h-0.6v-0.8h0.6
	c0-0.1,0-0.9,0-1c0-0.8,0.3-1.3,0.7-1.5c0.3-0.2,0.6-0.3,1.1-0.3c0.5,0,0.9,0.1,1.3,0.3L19,84.5z"/>
<path fill="#A3001C" d="M22.9,87h-1.2v3.6c0,0.7,0.2,1,0.8,1c0.2,0,0.4,0,0.6-0.1l0.1,0.7c-0.3,0.2-0.7,0.3-1.1,0.3
	c-0.4,0-0.8-0.1-1-0.3c-0.3-0.2-0.4-0.3-0.4-1.2V87h-0.7v-0.8h0.7c0-0.5,0-1.1,0.1-1.5l1.1-0.3c0,0.4-0.1,1.2-0.1,1.8h1.5L22.9,87z"
	/>
<path fill="#A3001C" d="M30.7,92.2h-1.1L28.8,89c-0.1-0.4-0.4-1.4-0.4-1.4h0c0,0-0.2,1-0.3,1.3l-0.9,3.3h-1.1l-1.6-6l1.1-0.2
	l0.8,3.4c0.1,0.6,0.3,1.5,0.3,1.5h0c0,0,0.1-0.9,0.3-1.4l0.9-3.3H29l0.8,3.2c0.2,0.6,0.3,1.4,0.3,1.5h0c0-0.1,0.2-1,0.3-1.4l0.7-3.3
	h1.1L30.7,92.2z"/>
<path fill="#A3001C" d="M38.2,92.5c-0.4-0.1-0.7-0.4-0.8-0.9c-0.2,0.2-0.7,0.8-1.7,0.8c-1.2,0-1.9-0.6-1.9-1.8
	c0-1.4,1.1-2.1,3.1-2.1c0.1,0,0.3,0,0.4,0v-0.4c0-0.7-0.1-1.2-0.9-1.2c-0.6,0-1.4,0.3-1.8,0.7L34,86.8c0.6-0.3,1.4-0.8,2.5-0.8
	c0.9,0,1.5,0.3,1.7,1c0.1,0.3,0.1,0.5,0.1,1.1c0,0.4,0,1.4,0,2.2c0,0.8,0,1.2,0.5,1.4L38.2,92.5z M36.9,89.2c-0.8,0-1.3,0.2-1.6,0.4
	c-0.2,0.3-0.3,0.5-0.3,0.9c0,0.7,0.3,1,0.9,1c0.5,0,1-0.3,1.3-0.8l0-1.5C37.1,89.2,37,89.2,36.9,89.2z"/>
<path fill="#A3001C" d="M43.6,87.2c-0.1,0-0.2-0.1-0.3-0.1c-0.7,0-1.2,0.6-1.2,1.2v3.9h-1.1v-4.4c0-0.7-0.1-1.1-0.2-1.5l1.1-0.3
	c0.1,0.2,0.2,0.6,0.2,0.9v0.1c0.5-0.7,1-1,1.6-1c0.1,0,0.3,0,0.4,0.1L43.6,87.2z"/>
<path fill="#A3001C" d="M46.3,89.4v0.1c0,0.5,0.1,0.9,0.3,1.2c0.3,0.5,0.8,0.7,1.4,0.7c0.6,0,1-0.2,1.5-0.6l0.4,0.7
	c-0.6,0.5-1.3,0.8-2.1,0.8c-1.7,0-2.7-1.2-2.7-3.2c0-1,0.2-1.7,0.7-2.3c0.5-0.6,1.1-0.8,1.8-0.8c0.7,0,1.2,0.2,1.6,0.6
	c0.5,0.5,0.7,1.2,0.7,2.6c0,0,0,0.1,0,0.2H46.3z M48.4,87.3c-0.2-0.2-0.5-0.4-0.9-0.4c-0.8,0-1.3,0.7-1.3,1.8h2.5
	C48.8,88,48.6,87.6,48.4,87.3z"/>
<path fill="#A3001C" d="M54.5,87h-1.2v3.6c0,0.7,0.2,1,0.8,1c0.2,0,0.4,0,0.6-0.1l0.1,0.7c-0.3,0.2-0.7,0.3-1.1,0.3
	c-0.4,0-0.8-0.1-1-0.3c-0.3-0.2-0.4-0.3-0.4-1.2V87h-0.7v-0.8h0.7c0-0.5,0-1.1,0.1-1.5l1.1-0.3c0,0.4-0.1,1.2-0.1,1.8h1.5L54.5,87z"
	/>
<path fill="#A3001C" d="M57.5,89.4v0.1c0,0.5,0.1,0.9,0.3,1.2c0.3,0.5,0.8,0.7,1.4,0.7c0.6,0,1-0.2,1.5-0.6l0.4,0.7
	c-0.6,0.5-1.3,0.8-2.1,0.8c-1.7,0-2.7-1.2-2.7-3.2c0-1,0.2-1.7,0.7-2.3c0.5-0.6,1.1-0.8,1.8-0.8c0.7,0,1.2,0.2,1.6,0.6
	c0.5,0.5,0.7,1.2,0.7,2.6c0,0,0,0.1,0,0.2H57.5z M59.6,87.3c-0.2-0.2-0.5-0.4-0.9-0.4c-0.8,0-1.3,0.7-1.3,1.8H60
	C60,88,59.9,87.6,59.6,87.3z"/>
<path fill="#A3001C" d="M65.5,92.3c-0.9,0-1.5-0.3-1.9-0.9c-0.4-0.6-0.6-1.3-0.6-2.2c0-1.4,0.4-2.1,1-2.6c0.4-0.4,1-0.6,1.6-0.6
	c0.6,0,1.2,0.2,1.6,0.6l-0.6,0.8c-0.4-0.3-0.7-0.5-1.1-0.5c-0.5,0-0.9,0.2-1.1,0.6c-0.2,0.4-0.3,1-0.3,1.8c0,0.8,0.2,1.4,0.5,1.7
	c0.2,0.2,0.5,0.4,0.9,0.4c0.4,0,0.9-0.2,1.2-0.6l0.5,0.7C66.8,92.1,66.2,92.3,65.5,92.3z"/>
<path fill="#A3001C" d="M72.8,92.2v-4.1c0-0.4-0.1-0.7-0.2-0.8C72.5,87.1,72.2,87,72,87c-0.5,0-1.1,0.3-1.6,0.9v4.3h-1.1v-7.3
	c0-0.5,0-0.9-0.1-1.3l1.1-0.2c0.1,0.4,0.1,0.8,0.1,1.4v1.3c0,0.2,0,0.5,0,0.8c0.3-0.2,0.4-0.3,0.6-0.5c0.4-0.3,0.9-0.4,1.3-0.4
	c0.7,0,1.3,0.4,1.5,0.9c0.1,0.3,0.1,0.4,0.1,1v4.3H72.8z"/>
<path fill="#A3001C" d="M79.8,92.2v-4c0-0.5,0-0.7-0.2-0.9C79.5,87.1,79.3,87,79,87c-0.4,0-1.1,0.3-1.5,0.8v4.4h-1.1v-4.5
	c0-0.7-0.1-1-0.2-1.4l1-0.3c0.1,0.3,0.2,0.5,0.2,0.9c0.3-0.3,0.5-0.4,0.8-0.6c0.3-0.2,0.7-0.3,1.1-0.3c0.6,0,1.2,0.3,1.4,0.9
	c0.1,0.2,0.1,0.5,0.1,0.8v4.5H79.8z"/>
<path fill="#A3001C" d="M85.6,92.4c-1.6,0-2.6-1.2-2.6-3.2c0-1.9,1-3.2,2.6-3.2c1.8,0,2.6,1.4,2.6,3.2
	C88.2,91.2,87.2,92.4,85.6,92.4z M85.6,86.9c-1,0-1.4,0.7-1.4,2.2c0,1.8,0.5,2.4,1.4,2.4c0.8,0,1.4-0.6,1.4-2.2
	C87,87.4,86.4,86.9,85.6,86.9z"/>
<path fill="#A3001C" d="M91.6,92.3c-0.4,0-0.7-0.1-0.9-0.5c-0.2-0.3-0.2-0.5-0.2-1v-5.4c0-0.9,0-1.3-0.1-1.7l1.1-0.2
	c0.1,0.4,0.1,1,0.1,1.7v5.4c0,0.6,0,0.8,0.2,0.9c0.1,0.1,0.2,0.1,0.4,0.1l0.2,0.7C92,92.3,91.8,92.3,91.6,92.3z"/>
<path fill="#A3001C" d="M96.4,92.4c-1.6,0-2.6-1.2-2.6-3.2c0-1.9,1-3.2,2.6-3.2c1.8,0,2.6,1.4,2.6,3.2C99,91.2,98,92.4,96.4,92.4z
	 M96.4,86.9c-1,0-1.4,0.7-1.4,2.2c0,1.8,0.5,2.4,1.4,2.4c0.8,0,1.4-0.6,1.4-2.2C97.8,87.4,97.2,86.9,96.4,86.9z"/>
<path fill="#A3001C" d="M105.7,87.1c-0.2,0-0.2,0-0.5-0.1c0.3,0.4,0.4,0.7,0.4,1.1c0,0.9-0.6,1.9-2.2,1.9c-0.4,0.1-0.9,0.4-0.9,0.7
	c0,0.2,0.1,0.3,0.4,0.3h0.9c1.5,0,2.2,0.7,2.2,1.7c0,1.3-1.1,1.9-2.5,1.9c-1.7,0-2.6-0.6-2.6-1.6c0-0.3,0-0.4,0.1-0.6l1.1-0.1
	c0,0.1-0.1,0.3-0.1,0.5c0,0.6,0.5,1,1.4,1c1,0,1.5-0.4,1.5-1c0-0.6-0.5-0.9-1.7-0.9c-0.4,0-0.9,0-1.1-0.1c-0.5-0.1-0.8-0.4-0.8-0.8
	c0-0.6,0.5-0.8,1.2-1.1c-0.9-0.3-1.4-0.9-1.4-1.7c0-1.2,0.9-2,2.3-2c0.3,0,0.6,0,0.9,0.1c0.3,0.1,0.6,0.2,0.9,0.2
	c0.4,0,0.7-0.1,1-0.3l0.6,0.7C106.3,87,106,87.1,105.7,87.1z M103.2,86.9c-0.7,0-1.1,0.4-1.1,1.1c0,0.7,0.4,1.1,1.1,1.1
	c0.7,0,1.1-0.4,1.1-1.1C104.3,87.3,104,86.9,103.2,86.9z"/>
<path fill="#A3001C" d="M108.7,85.1c-0.4,0-0.8-0.4-0.8-0.8c0-0.4,0.3-0.8,0.8-0.8c0.4,0,0.8,0.3,0.8,0.8
	C109.5,84.8,109.2,85.1,108.7,85.1z M108.2,92.2v-6l1.1-0.2v6.1H108.2z"/>
<path fill="#A3001C" d="M112.7,89.4v0.1c0,0.5,0.1,0.9,0.3,1.2c0.3,0.5,0.8,0.7,1.4,0.7c0.6,0,1-0.2,1.5-0.6l0.4,0.7
	c-0.6,0.5-1.3,0.8-2.1,0.8c-1.7,0-2.7-1.2-2.7-3.2c0-1,0.2-1.7,0.7-2.3c0.5-0.6,1.1-0.8,1.8-0.8c0.7,0,1.2,0.2,1.6,0.6
	c0.5,0.5,0.7,1.2,0.7,2.6c0,0,0,0.1,0,0.2H112.7z M114.8,87.3c-0.2-0.2-0.5-0.4-0.9-0.4c-0.8,0-1.3,0.7-1.3,1.8h2.5
	C115.2,88,115,87.6,114.8,87.3z"/>
</svg>
